<svg xmlns="http://www.w3.org/2000/svg" viewBox="0 0 48 48" xml:space="preserve" width="528" height="528"><path fill="#BBDEFB" d="M34 11c0-5.6-3-9-3-9H17s-3 3.4-3 9c0 3.6 6 16.8 6 21 0 3.3-2.9 9.3-3.9 12.3-.3.8.3 1.7 1.2 1.7h13.4c.9 0 1.5-.9 1.2-1.7-1.1-3-3.9-9-3.9-12.3 0-4.2 6-17.4 6-21z"/><path fill="#F57F17" d="M19 42h10c1 0 1.6-1 1.3-1.9-.9-2.3-2.3-6.2-2.3-8.1 0-4.3 6-17.4 6-21 0-5.6-3-9-3-9H17s-3 3.4-3 9c0 3.6 6 16.8 6 21 0 1.9-1.4 5.8-2.3 8.1-.3.9.4 1.9 1.3 1.9z"/><path fill="#FFECB3" d="M24 2h-7s-3 3.4-3 9h20c0-5.6-3-9-3-9h-7z"/><path fill="#FFFDE7" d="M18.2 4c-.5 1-.9 2.4-1.2 3.9-.2.9-.2 2-.1 3.1h2.3c-.1-.9 0-1.8.2-2.6.4-1.8 1.2-3.2 1.8-4.1.1-.1.1-.2.2-.3h-3.2z"/><path fill="#FBC02D" d="M17.9 15.4c.8 2.5 1.7 5.1 2.5 7.7l1.2 3.9c.3 1.3.7 2.6.8 3.8.2 1.2.2 2.5.1 3.6-.1 1.2-.3 2.2-.5 3.2-.4 1.9-.9 3.4-1.3 4.5h.2c.5-1.1 1-2.6 1.6-4.4.3-1 .5-2.1.7-3.3.2-1.2.3-2.4.2-3.8-.1-1.3-.3-2.6-.6-4-.3-1.3-.6-2.7-.9-4-.7-2.7-1.4-5.3-2-7.8-.3-1.2-.5-2.5-.6-3.5v-.4H17c0 .2 0 .4.1.6.1 1.4.4 2.6.8 3.9z"/></svg>